<?xml version="1.0" encoding="UTF-8"?>
<svg id="Layer_2" data-name="Layer 2" xmlns="http://www.w3.org/2000/svg" viewBox="0 0 957.83 220.03">
  <defs>
    <style>
      .cls-1, .cls-2, .cls-3, .cls-4, .cls-5, .cls-6, .cls-7, .cls-8, .cls-9, .cls-10, .cls-11, .cls-12, .cls-13, .cls-14, .cls-15, .cls-16, .cls-17, .cls-18 {
        stroke: #fff;
        stroke-linecap: round;
        stroke-linejoin: round;
      }

      .cls-1, .cls-2, .cls-3, .cls-4, .cls-5, .cls-6, .cls-8, .cls-9, .cls-11, .cls-12, .cls-13, .cls-14, .cls-15, .cls-16, .cls-17 {
        stroke-width: 3.42px;
      }

      .cls-1, .cls-10 {
        fill: #b265e7;
      }

      .cls-2 {
        fill: #91a1f1;
      }

      .cls-3 {
        fill: #d1a3f1;
      }

      .cls-4, .cls-7, .cls-19, .cls-18 {
        fill: #3a58ee;
      }

      .cls-5 {
        fill: #8c09e7;
      }

      .cls-6 {
        fill: red;
      }

      .cls-7 {
        stroke-width: 1.85px;
      }

      .cls-20 {
        fill: #333;
      }

      .cls-8 {
        fill: #e0c1f5;
      }

      .cls-9 {
        fill: #522174;
      }

      .cls-10 {
        stroke-width: 1.64px;
      }

      .cls-11 {
        fill: #c1c9f1;
      }

      .cls-12 {
        fill: #163aee;
      }

      .cls-13 {
        fill: #d60000;
      }

      .cls-14 {
        fill: #c184ec;
      }

      .cls-15 {
        fill: #6179f1;
      }

      .cls-16 {
        fill: #3151f1;
      }

      .cls-17 {
        fill: #758aee;
      }

      .cls-18 {
        stroke-width: 1.47px;
      }
    </style>
  </defs>
  <g id="Layer_1-2" data-name="Layer 1">
    <g>
      <g>
        <g>
          <path class="cls-19" d="M385.26,159.37c-3.03,5.11-7.53,9.22-13.48,12.3-5.96,3.09-13.21,4.64-21.74,4.64s-15.96-1.43-22.59-4.3c-6.63-2.87-11.94-7-15.93-12.39-3.99-5.39-6.27-11.69-6.83-18.88h25.28c.56,4.83,2.5,8.85,5.82,12.05,3.31,3.2,7.73,4.8,13.23,4.8,4.94,0,8.74-1.32,11.38-3.96,2.64-2.64,3.96-6.04,3.96-10.2,0-3.71-1.07-6.77-3.2-9.19-2.14-2.42-4.83-4.35-8.09-5.82-3.26-1.46-7.75-3.14-13.48-5.06-7.42-2.47-13.49-4.91-18.2-7.33-4.72-2.42-8.74-5.93-12.05-10.54-3.32-4.61-4.97-10.62-4.97-18.04,0-10.22,3.68-18.29,11.04-24.19,7.36-5.9,17.11-8.85,29.25-8.85s22.61,3.03,30.09,9.1c7.47,6.07,11.71,14.16,12.73,24.27h-25.62c-.67-4.27-2.47-7.78-5.39-10.54-2.92-2.75-6.91-4.13-11.97-4.13-4.38,0-7.92,1.15-10.62,3.46-2.7,2.3-4.05,5.65-4.05,10.03,0,3.48,1.04,6.38,3.12,8.68,2.08,2.3,4.72,4.19,7.92,5.65,3.2,1.46,7.56,3.09,13.06,4.89,7.64,2.7,13.85,5.23,18.63,7.59,4.77,2.36,8.85,5.9,12.22,10.62,3.37,4.72,5.06,10.9,5.06,18.54,0,6.07-1.52,11.66-4.55,16.77Z"/>
          <path class="cls-19" d="M491.72,132.99h-68.44c.34,8.32,2.58,14.44,6.74,18.37,4.16,3.93,9.33,5.9,15.51,5.9,5.5,0,10.08-1.35,13.74-4.05,3.65-2.7,5.98-6.35,7-10.96h25.12c-1.24,6.52-3.88,12.36-7.92,17.53-4.04,5.17-9.24,9.22-15.59,12.14-6.35,2.92-13.4,4.38-21.15,4.38-9.1,0-17.19-1.94-24.27-5.82-7.08-3.88-12.59-9.41-16.52-16.6-3.94-7.19-5.9-15.68-5.9-25.45s1.96-18.29,5.9-25.54c3.93-7.25,9.44-12.78,16.52-16.6,7.08-3.82,15.17-5.73,24.27-5.73s17.28,1.91,24.19,5.73c6.91,3.82,12.25,9.08,16.01,15.76,3.76,6.69,5.65,14.3,5.65,22.84,0,2.36-.28,5.06-.84,8.09Zm-29.08-27.81c-4.33-3.93-9.64-5.9-15.93-5.9s-11.8,1.97-16.18,5.9c-4.38,3.94-6.8,9.72-7.25,17.36h45.34c.34-7.64-1.66-13.43-5.98-17.36Z"/>
          <path class="cls-19" d="M531.04,50.39v124.74h-23.77V50.39h23.77Z"/>
          <path class="cls-19" d="M583.06,68.6c-2.81,2.47-4.21,6.8-4.21,12.98v.17h18.88v20.06h-18.88v73.32h-23.77V101.8h-11.97v-20.06h11.97v-2.19c0-11.12,3.17-19.69,9.52-25.71,6.35-6.01,15.76-9.02,28.23-9.02,2.13,0,3.76,.06,4.89,.17v20.56c-6.97-.45-11.86,.56-14.66,3.03Z"/>
        </g>
        <g>
          <path class="cls-20" d="M707.65,49.26v19.96h-34.75v105.84h-25.12V69.22h-34.57v-19.96h94.44Z"/>
          <path class="cls-20" d="M797.33,130.51h-72.34c.36,8.79,2.73,15.27,7.13,19.42,4.39,4.16,9.86,6.24,16.39,6.24,5.82,0,10.66-1.43,14.52-4.28,3.86-2.85,6.33-6.71,7.39-11.58h26.55c-1.31,6.89-4.1,13.07-8.37,18.53-4.28,5.47-9.77,9.74-16.48,12.83-6.71,3.09-14.17,4.63-22.36,4.63-9.62,0-18.17-2.05-25.66-6.15-7.48-4.1-13.31-9.95-17.46-17.55-4.16-7.6-6.24-16.57-6.24-26.91s2.08-19.33,6.24-26.99c4.16-7.66,9.98-13.51,17.46-17.55,7.48-4.04,16.04-6.06,25.66-6.06s18.26,2.02,25.57,6.06c7.31,4.04,12.95,9.59,16.93,16.66,3.98,7.07,5.97,15.12,5.97,24.14,0,2.49-.3,5.35-.89,8.55Zm-30.74-29.4c-4.57-4.16-10.19-6.24-16.84-6.24s-12.47,2.08-17.11,6.24c-4.63,4.16-7.19,10.28-7.66,18.35h47.93c.36-8.08-1.75-14.19-6.33-18.35Z"/>
          <path class="cls-20" d="M875.21,84.19c7.24,6.06,11.76,14.14,13.54,24.23h-23.52c-.95-4.75-3.09-8.55-6.41-11.4-3.33-2.85-7.66-4.28-13.01-4.28-4.28,0-7.6,1.01-9.98,3.03-2.38,2.02-3.56,4.75-3.56,8.2,0,2.73,.95,4.93,2.85,6.59,1.9,1.66,4.28,2.97,7.13,3.92,2.85,.95,6.95,2.08,12.29,3.39,7.48,1.66,13.57,3.42,18.26,5.26,4.69,1.84,8.73,4.75,12.12,8.73,3.39,3.98,5.08,9.35,5.08,16.13,0,8.44-3.3,15.27-9.89,20.49-6.59,5.23-15.47,7.84-26.64,7.84-12.83,0-23.11-2.88-30.83-8.64-7.72-5.76-12.41-13.99-14.08-24.68h24.05c.59,4.87,2.73,8.7,6.41,11.49,3.68,2.79,8.49,4.19,14.43,4.19,4.28,0,7.54-1.04,9.8-3.12,2.25-2.08,3.39-4.78,3.39-8.11,0-2.85-.98-5.17-2.94-6.95-1.96-1.78-4.4-3.15-7.31-4.1-2.91-.95-7.04-2.08-12.38-3.39-7.37-1.66-13.34-3.35-17.91-5.08-4.57-1.72-8.49-4.48-11.76-8.29-3.27-3.8-4.9-9.03-4.9-15.68,0-8.55,3.27-15.5,9.8-20.85,6.53-5.35,15.56-8.02,27.08-8.02s21.62,3.03,28.87,9.09Z"/>
          <path class="cls-20" d="M957.83,153.5v21.56h-13.19c-11.05,0-19.51-2.67-25.39-8.02-5.88-5.35-8.82-14.25-8.82-26.73v-42.76h-13.72v-21.2h13.72v-24.41h25.12v24.41h22.09v21.2h-22.09v43.12c0,4.75,.95,8.08,2.85,9.98,1.9,1.9,5.11,2.85,9.62,2.85h9.8Z"/>
        </g>
      </g>
      <g>
        <g>
          <polygon class="cls-8" points="269.68 49.19 211.06 15.34 210.99 15.38 210.98 83.08 269.68 49.19"/>
          <polygon class="cls-3" points="210.98 83.08 210.98 83.08 210.99 15.38 152.43 49.19 152.43 49.27 210.98 83.08 210.98 83.08"/>
          <polygon class="cls-14" points="210.98 83.08 152.43 49.27 152.43 116.85 210.98 83.08"/>
          <polygon class="cls-5" points="152.43 116.85 210.98 150.65 210.98 83.08 152.43 116.85"/>
          <polygon class="cls-1" points="93.87 82.92 152.43 116.73 152.43 49.16 93.87 82.92"/>
          <polygon class="cls-10" points="247.76 94.49 219.7 110.69 247.76 126.88 247.76 94.49 247.76 94.49"/>
          <polygon class="cls-9" points="210.98 150.65 152.43 116.85 152.42 184.52 152.56 184.59 210.98 150.86 210.98 150.65"/>
        </g>
        <g>
          <polygon class="cls-13" points="17.69 116.95 76.37 150.83 76.37 83.07 17.69 116.95 17.69 116.95"/>
          <polygon class="cls-6" points="134.82 116.8 76.4 83.07 76.4 150.84 134.82 116.8"/>
          <polygon class="cls-12" points="76.4 150.84 134.75 184.54 134.82 184.5 134.82 116.8 76.4 150.84"/>
          <polygon class="cls-16" points="17.87 184.63 76.23 218.32 76.36 218.25 76.36 150.86 17.87 184.63"/>
          <polygon class="cls-15" points="76.4 150.84 76.36 150.86 76.36 218.25 134.75 184.54 76.4 150.84 76.4 150.84"/>
          <polygon class="cls-11" points="134.82 49.32 76.14 83.2 76.14 15.44 134.82 49.32 134.82 49.32"/>
          <polygon class="cls-2" points="17.69 49.17 76.12 15.44 76.12 83.22 17.69 49.17"/>
          <polygon class="cls-18" points="116.53 15.27 141.71 .74 141.71 29.95 116.53 15.27"/>
          <polygon class="cls-17" points="76.12 83.22 17.76 116.91 17.69 116.87 17.69 49.17 76.12 83.22"/>
          <polygon class="cls-15" points="134.64 117 76.28 150.7 76.15 150.62 76.15 83.24 134.64 117"/>
          <polygon class="cls-7" points="32.62 158.87 1 177.13 .93 177.09 .93 140.57 32.62 158.87"/>
          <polygon class="cls-4" points="76.12 83.22 76.15 83.24 76.15 150.62 17.76 116.91 76.12 83.22 76.12 83.22"/>
        </g>
      </g>
    </g>
  </g>
</svg>